PathFileType	4	(X/Y/Z)	C:/Users/opensim2020/Desktop/walking_exp_matlab/subject02_walking15_straight_01.trc	
DataRate	CameraRate	NumFrames	NumMarkers	Units	OrigDataRate	OrigDataStartFrame	OrigNumFrames	
100.00	100.00	6	42	mm	100.00	511	165	
Frame#	Time	LFHD			RFHD			LBHD			RBHD			C7			T10			CLAV			STRN			RBAK			LSHO			LUPA			LELB			LFRM			LWRA			LWRB			LFIN			RSHO			RUPA			RELB			RFRM			RWRA			RWRB			RFIN			LASI			RASI			LPSI			RPSI			LTHI			LKNE			LTIB			LANK			LHEE			LTOE			RTHI			RKNE			RTIB			RANK			RHEE			RTOE			*39			*40			*41			
		X1	Y1	Z1	X2	Y2	Z2	X3	Y3	Z3	X4	Y4	Z4	X5	Y5	Z5	X6	Y6	Z6	X7	Y7	Z7	X8	Y8	Z8	X9	Y9	Z9	X10	Y10	Z10	X11	Y11	Z11	X12	Y12	Z12	X13	Y13	Z13	X14	Y14	Z14	X15	Y15	Z15	X16	Y16	Z16	X17	Y17	Z17	X18	Y18	Z18	X19	Y19	Z19	X20	Y20	Z20	X21	Y21	Z21	X22	Y22	Z22	X23	Y23	Z23	X24	Y24	Z24	X25	Y25	Z25	X26	Y26	Z26	X27	Y27	Z27	X28	Y28	Z28	X29	Y29	Z29	X30	Y30	Z30	X31	Y31	Z31	X32	Y32	Z32	X33	Y33	Z33	X34	Y34	Z34	X35	Y35	Z35	X36	Y36	Z36	X37	Y37	Z37	X38	Y38	Z38	X39	Y39	Z39	X40	Y40	Z40	X41	Y41	Z41	X42	Y42	Z42	

124	1.230	1494.45642	210.69669	1734.87219	1638.02368	222.14157	1723.70813	1501.03101	78.28944	1663.94507	1643.79846	76.56328	1651.57349	1583.22083	29.91569	1522.80615	1604.07617	-15.70728	1246.54712	1558.75940	167.18831	1458.10645	1569.95264	224.44890	1287.89331	1662.92505	-18.47259	1351.11523	1398.85791	75.24792	1489.85901	1323.76782	33.96381	1292.19629	1310.21411	12.66358	1154.42615	1290.89722	0.25958	1024.56543	1307.02722	41.30171	889.44910	1281.13770	-7.69645	901.78320	1272.94116	-1.64802	835.93707	1758.88782	122.09091	1502.12793	1859.74634	121.54211	1317.99731	1884.46155	154.79968	1174.23645	1901.45154	209.48688	1066.81323	1878.76440	282.41019	953.97998	1916.14026	241.25792	941.23132	1917.31970	293.04617	890.58826	1457.50171	203.52205	989.42377	1709.57800	214.40128	973.40332	1545.07312	-0.94733	1033.02686	1660.41626	2.12078	1036.34497	1385.27820	207.23083	688.06891	1419.15283	249.52304	493.63809	1445.26648	210.44550	305.39197	1478.72925	244.17502	84.54467	1541.74792	234.30014	57.65169	1417.00525	381.87283	58.72631	1772.25403	109.87492	669.96942	1731.19958	71.83279	461.60834	1745.62659	7.48529	285.29214	1710.71802	-38.09966	95.21531	1661.91064	-84.29372	41.77067	1709.85046	110.76769	37.34945	1588.80896	118.61551	1807.70142	-3357.35889	2845.98096	1034.39014			 
125	1.240	1492.08777	223.08659	1732.83350	1635.66077	235.10666	1722.02917	1499.37512	90.66515	1662.02271	1642.08960	89.49036	1649.88293	1581.38892	42.75132	1520.70703	1601.98987	-3.04781	1244.76965	1557.14404	180.24490	1456.09216	1568.98621	237.36586	1285.80225	1661.72290	-5.30485	1349.58923	1396.95300	88.13119	1487.31592	1323.24866	43.39526	1289.89453	1311.00842	19.54794	1153.13928	1291.52246	1.56746	1024.67114	1305.96277	36.12856	887.54358	1281.02112	-12.46256	902.43549	1272.10364	-9.83512	836.59607	1757.14209	135.11009	1500.84631	1858.69299	136.53351	1317.31799	1883.95544	172.00069	1173.96021	1900.16406	229.91701	1067.94946	1876.21814	306.06372	957.75897	1913.57300	265.29749	943.14374	1913.96631	318.68845	894.20789	1456.39661	216.98297	986.94452	1709.19165	225.67117	971.14703	1542.06433	11.80793	1030.90100	1657.26294	13.36316	1034.31018	1384.64880	220.84608	685.85840	1419.19067	263.42957	491.53635	1442.91333	235.68614	300.55402	1472.21680	282.95963	81.09254	1534.70923	274.35135	53.25367	1410.01123	422.07248	63.78028	1771.32056	116.93086	669.14496	1730.47290	76.31727	461.49042	1744.69666	9.54093	285.72021	1710.03198	-37.66426	95.82714	1661.07117	-84.01216	42.43618	1709.77673	110.66761	37.05940	1586.59680	131.37724	1805.90576	-3357.35669	2845.90381	1034.32605			 
126	1.250	1489.68762	235.58481	1730.75330	1633.22998	248.03117	1720.17773	1497.25098	103.13835	1659.70886	1640.29614	102.53291	1648.02368	1579.76611	55.68780	1518.81030	1599.68530	9.62932	1242.78748	1555.51465	193.40013	1453.92371	1567.92883	250.36432	1283.58228	1659.69702	7.60387	1347.41614	1395.28870	101.46212	1484.87561	1323.42896	53.55039	1287.32373	1311.67371	26.56713	1151.94543	1291.76831	3.26020	1024.91736	1305.02820	31.32378	886.16248	1280.14014	-16.33775	903.58594	1271.19836	-17.46969	837.83667	1755.24316	148.06201	1499.48071	1857.18445	151.03934	1316.36108	1883.64746	189.08530	1173.73828	1898.49707	249.85675	1068.96423	1873.34033	329.18839	961.45276	1910.88184	289.10181	945.25854	1910.50085	343.93008	898.08936	1455.06934	230.45566	984.25690	1708.52087	237.13943	968.86163	1538.96741	24.56259	1028.49951	1654.05066	24.49327	1032.08240	1383.89160	233.95547	682.92883	1419.21741	277.78345	489.17682	1439.87988	259.76321	296.42081	1465.59277	320.35489	78.88788	1527.85791	313.28799	50.15326	1402.92554	460.35504	69.66185	1770.29871	124.09620	668.22241	1729.39514	80.53551	461.02853	1743.67615	11.53569	286.26672	1709.48413	-37.08253	96.62405	1659.69495	-84.44178	43.76291	1710.21094	110.76208	37.10864	1584.29150	144.16235	1803.88525	-3357.31763	2845.84009	1034.42322			 
127	1.260	1487.17078	248.01993	1728.52356	1630.73132	260.99036	1718.20850	1495.23352	115.72529	1657.39160	1638.31616	115.49276	1646.00464	1577.80481	68.70735	1516.47302	1597.08691	22.37354	1240.75317	1553.65955	206.58038	1451.65479	1566.68372	263.41000	1281.25830	1657.70117	20.53910	1345.28809	1393.31860	114.54504	1482.31628	1322.64355	63.14185	1285.63123	1312.22583	33.65436	1150.91333	1291.98621	5.53636	1025.29932	1303.90735	27.75544	885.91113	1279.82581	-19.64106	905.12183	1270.45422	-24.13682	839.77441	1753.05493	160.94247	1497.77966	1855.97668	165.66379	1315.50977	1882.87280	205.62547	1173.19165	1896.48303	269.28848	1069.80066	1870.78992	352.20868	965.33826	1908.10791	312.52863	947.48853	1907.02344	368.77487	902.11243	1453.44592	244.03667	981.40930	1707.59485	248.79587	966.65564	1535.84668	37.34411	1025.84351	1650.58472	36.01879	1029.37048	1383.07727	246.67447	679.44080	1418.86475	292.45972	486.69122	1437.19470	284.73328	292.94922	1459.29932	356.44534	78.35990	1520.89917	350.33963	48.09878	1396.30225	496.75250	76.01389	1769.39490	131.30037	667.38300	1728.41931	84.87181	460.62448	1742.67163	13.42005	286.95621	1708.60632	-36.68902	97.44726	1658.67151	-83.83817	44.65606	1710.39575	110.84161	37.01135	1581.98462	156.90176	1801.81335	-3357.34082	2846.04443	1034.27417			 
128	1.270	1484.61047	260.58301	1726.24353	1628.08960	273.91040	1716.13721	1493.14111	128.30898	1655.14001	1636.18982	128.49606	1643.88098	1575.74268	81.73215	1514.03125	1594.32288	35.11652	1238.72852	1551.62524	219.81134	1449.27893	1565.23560	276.50842	1278.84705	1655.75037	33.43854	1343.16565	1391.29541	127.73030	1479.75439	1322.32715	72.69942	1283.65149	1312.60266	40.84713	1150.04370	1291.93567	7.91108	1026.05591	1303.01489	24.19189	885.45447	1280.01465	-22.56299	907.29407	1269.64099	-30.05059	842.05695	1750.75183	173.80585	1496.08435	1854.19470	179.74217	1314.22351	1881.96899	221.84146	1172.52441	1894.79028	288.59171	1070.87634	1867.50256	374.11392	968.92041	1905.16443	335.52899	949.78845	1903.48120	393.14319	906.23407	1451.78418	257.56418	978.35699	1706.49048	260.61691	964.57849	1532.78015	50.40907	1022.89288	1647.18103	47.67850	1026.44299	1381.84680	258.70514	675.80328	1417.85913	306.90125	484.10834	1433.63123	308.43167	290.05255	1453.15613	390.30597	78.57867	1514.47180	385.50937	47.34032	1390.56860	531.07629	82.79719	1768.46619	138.72971	666.50549	1727.45642	89.44926	460.33249	1741.42542	15.44005	287.57922	1707.55444	-36.28514	98.34124	1657.27356	-83.14178	45.81734	1710.55115	110.99540	36.91128	1579.60938	169.67467	1799.69922	-3360.32617	2845.27734	1034.33105			 
129	1.280	1482.09717	273.31232	1724.12793	1625.46851	286.86472	1713.98340	1491.17017	140.95657	1652.93591	1633.94275	141.56624	1641.63428	1573.35291	94.52312	1511.53394	1591.41699	47.91805	1236.37927	1549.45105	233.08586	1446.87781	1563.53589	289.61960	1276.38477	1652.83972	46.40891	1340.59741	1388.90320	140.74275	1477.10669	1320.94910	82.82687	1281.72437	1312.75439	48.20531	1149.26270	1292.28357	10.64182	1026.97900	1301.69202	21.88515	885.44293	1279.99463	-24.44811	909.72620	1269.42346	-34.77264	844.95416	1748.36584	186.66858	1494.28479	1852.45251	193.78749	1312.93420	1880.94238	237.68816	1171.67981	1892.94153	307.50217	1071.90344	1864.48132	395.91196	972.85883	1902.04211	358.03046	952.12860	1899.78394	417.00327	910.50531	1449.92700	271.45410	975.59613	1705.21436	272.70834	962.62988	1529.83374	63.53102	1019.90161	1643.69995	59.66632	1023.31689	1380.46777	270.40475	672.57361	1416.54993	321.51868	481.48416	1429.61292	331.44424	287.65244	1447.31738	421.83588	79.57048	1508.08301	417.67514	47.59058	1385.91565	563.06592	89.73300	1767.42712	146.32376	665.69360	1726.49072	94.38640	460.15152	1739.75854	17.89995	288.37070	1706.13721	-35.62099	99.45485	1655.73181	-82.05413	46.87086	1710.68079	111.20208	36.80490	1577.31873	182.57408	1797.52112	-3357.47314	2845.99707	1034.40723			 
